# xmcd
#
# Track frame offsets: 
#        150
#        48529
#        86228
#        160052
#        196359
#        211932
#        237554
#        253621
#        260570
#        279702
#        293335
#        344383
#
# Disc length: 4768 seconds
#
# Revision: 3
# Processed by: cddbd v1.5.2PL0 Copyright (c) Steve Scherf et al.
# Submitted via: ExactAudioCopy v1.0b6
#
DISCID=b6129e0c
DTITLE=Stephen Hough - Stephen Hough In Recital (2008)
DYEAR=2008
DGENRE=Classical Piano
TTITLE0=MENDELSSOHN: Variations Sérieuses, Op. 54
TTITLE1=BEETHOVEN: Piano Sonata #32 in Cm, Op. 111 - I. Maestoso: Alle
TTITLE1=gro con brio ed appassionato
TTITLE2=BEETHOVEN: Piano Sonata #32 in Cm, Op. 111 - II. Arietta: Adag
TTITLE2=io molto, semplice e cantabile
TTITLE3=WEBER: Aufforderung zum Tanz, Op. 65
TTITLE4=CHOPIN: Waltz in C sharp minor, Op. 64-2
TTITLE5=CHOPIN: Waltz in A flat major, Op. 34-1
TTITLE6=SAINT-SAENS: Valse nonchalante, Op. 110
TTITLE7=CHABRIER: Feuillet d'album
TTITLE8=DEBUSSY: La plus que lente
TTITLE9=LISZT: Valse oubliée #1, S 215-1
TTITLE10=LISZT: Mephisto Waltz #1, S 514, 'Der Tanz in der Dorfschenke
TTITLE10='
TTITLE11=Matilda's Waltz (arr. Hough)
EXTD=Hyperion CDA67686 YEAR: 2008
EXTT0=
EXTT1=
EXTT2=
EXTT3=
EXTT4=
EXTT5=
EXTT6=
EXTT7=
EXTT8=
EXTT9=
EXTT10=
EXTT11=
PLAYORDER=
